Coordinates
version=1
nRows=11
nColumns=46
inDegrees=yes

Units are S.I. units (second, meters, Newtons, ...)
Angles are in degrees.

endheader
time	pelvis_tilt	pelvis_list	pelvis_rotation	pelvis_tx	pelvis_ty	pelvis_tz	bb_angle	bb_tx	bb_ty	bb_tz	hip_flexion_r	hip_adduction_r	hip_rotation_r	knee_angle_r	knee_angle_r_beta	ankle_angle_r	subtalar_angle_r	mtp_angle_r	crank_angle_r	hip_flexion_l	hip_adduction_l	hip_rotation_l	knee_angle_l	knee_angle_l_beta	ankle_angle_l	subtalar_angle_l	mtp_angle_l	crank_angle_l	lumbar_extension	lumbar_bending	lumbar_rotation	arm_flex_r	arm_add_r	arm_rot_r	elbow_flex_r	pro_sup_r	wrist_flex_r	wrist_dev_r	arm_flex_l	arm_add_l	arm_rot_l	elbow_flex_l	pro_sup_l	wrist_flex_l	wrist_dev_l
      2.50000000	     -4.02194458	      4.29266594	     -1.00252539	      0.06359745	      1.16199790	     -0.24304465	      0.00000000	      0.50000000	      0.00000000	      0.25000000	     33.34248447	     -6.17795809	      7.06792830	     33.40974231	      0.58311001	      2.84133978	     -2.74132042	      0.00000000	      0.00000000	     68.64232443	     -3.89218258	     -1.39330652	    108.78222368	      1.89860797	    -14.47789138	    -13.64420556	      0.00000000	      0.00000000	    -62.98019350	     -0.68866600	     -3.01988907	     88.64596178	    -10.14471453	     46.71992592	     41.98928249	     30.37863660	      0.00000000	      0.00000000	     88.29302889	    -18.72140920	     51.29223791	     36.68944667	     44.41128907	      0.00000000	      0.00000000
      2.50500000	     -3.98284293	      5.13926186	     -0.85802603	      0.06528648	      1.16166358	     -0.24066404	      0.00000000	      0.50000000	      0.00000000	      0.25000000	     32.11362017	     -7.09499261	      6.86440683	     32.31356769	      0.56397815	      2.62297896	     -2.36683819	      0.00000000	      0.00000000	     70.09247552	     -4.13233681	     -1.94042697	    109.55286343	      1.91205817	    -15.68889462	    -12.60484912	      0.00000000	      0.00000000	    -62.76840313	     -1.57184079	     -3.62317972	     88.21696556	    -10.49456887	     46.69409772	     41.87398625	     30.43773481	      0.00000000	      0.00000000	     88.20247025	    -18.14764805	     51.40420804	     36.73884704	     44.42313642	      0.00000000	      0.00000000
      2.51000000	     -3.74428724	      6.17792818	     -0.58821863	      0.06704921	      1.16165947	     -0.23866416	      0.00000000	      0.50000000	      0.00000000	      0.25000000	     30.86858840	     -8.38592534	      6.27719433	     31.63107182	      0.55206635	      2.74005468	     -1.26192399	      0.00000000	      0.00000000	     71.15853552	     -4.06930669	     -2.70061331	    110.16429488	      1.92272966	    -16.56423481	    -11.71579890	      0.00000000	      0.00000000	    -62.67507859	     -2.59933621	     -3.90998809	     87.74934869	    -11.70734167	     46.93823530	     41.77314104	     30.84674588	      0.00000000	      0.00000000	     88.45758557	    -16.18025452	     52.50769112	     34.72075784	     44.16265453	      0.00000000	      0.00000000
      2.51500000	     -3.80890133	      7.00675672	     -0.35058056	      0.06869124	      1.16115190	     -0.23673908	      0.00000000	      0.50000000	      0.00000000	      0.25000000	     30.01015149	     -9.35239210	      5.86219403	     31.08951868	      0.54261446	      2.68282895	     -0.91359623	      0.00000000	      0.00000000	     72.50648446	     -4.11654230	     -3.12008485	    110.76260110	      1.93317208	    -16.88570842	    -10.15972317	      0.00000000	      0.00000000	    -62.36232479	     -3.51438187	     -4.31223568	     87.14729550	    -12.46688881	     46.80775814	     41.82381587	     31.08880128	      0.00000000	      0.00000000	     88.48028327	    -14.98530910	     53.00485500	     33.95596992	     44.05238347	      0.00000000	      0.00000000
      2.52000000	     -3.87617991	      7.63992505	     -0.09044430	      0.07014112	      1.16082540	     -0.23457883	      0.00000000	      0.50000000	      0.00000000	      0.25000000	     29.16713994	    -10.05389800	      5.50409173	     30.61859976	      0.53439538	      2.56612154	     -0.84712187	      0.00000000	      0.00000000	     73.74487867	     -4.24828941	     -3.49557160	    111.22428072	      1.94122991	    -17.28216695	     -9.52455527	      0.00000000	      0.00000000	    -62.10939108	     -4.26812902	     -4.84842412	     86.66133071	    -12.77195444	     46.68778699	     41.78210348	     31.14635455	      0.00000000	      0.00000000	     88.40291647	    -14.42379650	     53.08147742	     33.90790789	     44.03944255	      0.00000000	      0.00000000
      2.52500000	     -3.94993594	      8.49030773	      0.25734768	      0.07158542	      1.16067094	     -0.23292922	      0.00000000	      0.50000000	      0.00000000	      0.25000000	     28.55308179	    -11.06413442	      5.09022557	     30.56180677	      0.53340415	      2.41702681	     -0.56552300	      0.00000000	      0.00000000	     74.76850616	     -4.05332635	     -4.07828749	    111.49842119	      1.94601456	    -17.13558400	     -8.59108959	      0.00000000	      0.00000000	    -61.80861112	     -5.43734113	     -4.41423548	     85.37199868	    -15.01981284	     45.24938352	     43.02177901	     32.16989428	      0.00000000	      0.00000000	     88.87457864	    -11.09592107	     54.88265603	     30.07838390	     43.30445858	      0.00000000	      0.00000000
      2.53000000	     -4.04569788	      9.10366775	      0.61746913	      0.07259267	      1.16062915	     -0.23135668	      0.00000000	      0.50000000	      0.00000000	      0.25000000	     28.01373724	    -11.77538539	      4.75057891	     30.59023098	      0.53390025	      2.10589132	     -0.67716599	      0.00000000	      0.00000000	     75.70369464	     -3.86864054	     -4.50310436	    111.68674535	      1.94930144	    -16.80610299	     -8.23927245	      0.00000000	      0.00000000	    -61.65059042	     -6.03400343	     -4.94470684	     84.95486822	    -15.35493695	     45.08219250	     42.87166718	     32.21694028	      0.00000000	      0.00000000	     88.84040665	    -10.54364112	     54.93452012	     30.11911878	     43.27892374	      0.00000000	      0.00000000
      2.53500000	     -4.08037024	      9.78741843	      0.98289573	      0.07352166	      1.16078998	     -0.22958082	      0.00000000	      0.50000000	      0.00000000	      0.25000000	     27.59882914	    -12.54079279	      4.45225314	     30.98773999	      0.54083809	      1.94752986	     -0.88917289	      0.00000000	      0.00000000	     76.40413269	     -3.60002124	     -5.01306553	    111.72321709	      1.94993799	    -16.09315939	     -7.81618675	      0.00000000	      0.00000000	    -61.59401587	     -6.81235022	     -5.08300926	     84.07852829	    -16.20377444	     43.45757368	     43.39079314	     32.77366355	      0.00000000	      0.00000000	     89.02970291	     -8.59792656	     55.14127928	     28.06732237	     42.61651345	      0.00000000	      0.00000000
      2.54000000	     -4.15813939	     10.25066850	      1.44760425	      0.07406156	      1.16093737	     -0.22808940	      0.00000000	      0.50000000	      0.00000000	      0.25000000	     27.31808896	    -13.06412624	      4.20421749	     31.58374426	      0.55124033	      1.56206710	     -1.51789821	      0.00000000	      0.00000000	     77.11958955	     -3.22222846	     -5.32325122	    111.67876888	      1.94916222	    -15.31525680	     -7.88661345	      0.00000000	      0.00000000	    -61.58693705	     -7.14583603	     -5.58153633	     83.83359239	    -16.48751510	     43.31047671	     43.29402473	     32.80044832	      0.00000000	      0.00000000	     89.08879140	     -8.19538046	     55.14347607	     28.11963770	     42.58446079	      0.00000000	      0.00000000
      2.54500000	     -4.27968659	     10.73122435	      1.97848388	      0.07434177	      1.16114438	     -0.22677157	      0.00000000	      0.50000000	      0.00000000	      0.25000000	     27.19252621	    -13.59161815	      4.01719573	     32.36076466	      0.56480189	      1.09695019	     -2.36511783	      0.00000000	      0.00000000	     77.79352385	     -2.65124306	     -5.59492265	    111.47616394	      1.94562610	    -14.30755670	     -8.10940191	      0.00000000	      0.00000000	    -61.58841927	     -7.43084636	     -6.11756847	     83.62543180	    -16.78929046	     43.00514086	     43.27942644	     32.84056022	      0.00000000	      0.00000000	     89.13860646	     -7.68294105	     55.03782345	     27.99032028	     42.48983696	      0.00000000	      0.00000000
      2.55000000	     -4.50675843	     11.14482864	      2.43858905	      0.07449620	      1.16135151	     -0.22525592	      0.00000000	      0.50000000	      0.00000000	      0.25000000	     27.38504865	    -13.91310622	      4.23734709	     33.42493983	      0.58337525	      0.31845708	     -3.51505822	      0.00000000	      0.00000000	     78.49111541	     -2.19652034	     -5.81135149	    111.14364971	      1.93982263	    -13.50807915	     -7.93781101	      0.00000000	      0.00000000	    -61.56999658	     -7.94009481	     -5.99140799	     82.41881504	    -17.71126428	     39.78122087	     44.74377513	     33.75422473	      0.00000000	      0.00000000	     89.23478761	     -5.49021724	     53.16388494	     26.34337327	     41.04082127	      0.00000000	      0.00000000
